<svg xmlns="http://www.w3.org/2000/svg" width="170" height="71.035" viewBox="0 0 170 71.035"><defs><style>.a{fill:#000016;}.b{fill:#ef760a;}</style></defs><g transform="translate(-168 -34)"><path class="a" d="M72.32,69.9c-.307-3.8-2.33-4.9-4.047-4.9-2.452,0-3.8,1.595-3.8,4.354,0,7.541,15.45,11.158,15.45,23.174,0,7.3-4.905,11.343-12.016,11.343-7.051,0-11.1-5.64-11.4-12.263l7.235-1.041c.306,4.474,2.084,6.682,4.536,6.682,2.637,0,4.416-1.41,4.416-4.047,0-8.768-15.452-11.1-15.452-23.789,0-7.05,4.292-11.034,11.772-11.034,6.193,0,9.87,4.474,10.545,10.729Z" transform="translate(133.612 -1.525)"/><path class="a" d="M131.066,69.712c0-6.254,3.679-11.343,11.649-11.343s11.649,5.089,11.649,11.343V92.518c0,6.253-3.679,11.342-11.649,11.342s-11.649-5.089-11.649-11.342Zm7.6,22.623c0,3.31.98,4.905,4.047,4.905s4.047-1.595,4.047-4.905V69.9c0-3.312-.98-4.905-4.047-4.905s-4.047,1.593-4.047,4.905Z" transform="translate(88.232 -1.523)"/><path class="a" d="M234.959,106.558c-2.821,0-5.027-.491-7.724-4.108a12.668,12.668,0,0,1-6.193,1.411c-7.971,0-11.649-5.089-11.649-11.343V69.71c0-6.254,3.678-11.343,11.649-11.343s11.649,5.089,11.649,11.343V92.517a12.386,12.386,0,0,1-1.288,5.7,5.719,5.719,0,0,0,3.556,1.717ZM221.593,87.428a11.217,11.217,0,0,1,3.5,2.7V69.894c0-3.31-.982-4.905-4.047-4.905S217,66.584,217,69.894V92.334c0,3.312.98,4.905,4.047,4.905a4.17,4.17,0,0,0,2.574-.675,5.993,5.993,0,0,0-2.023-2.391Z" transform="translate(40.562 -1.522)"/><path class="a" d="M287.719,59.934h7.6V93.348c0,3.25,1.288,4.845,4.047,4.845s4.047-1.595,4.047-4.845V59.935h7.6V93.043c0,7.6-4.414,11.771-11.649,11.771s-11.649-4.169-11.649-11.771Z" transform="translate(-7.107 -2.477)"/><rect class="a" width="7.601" height="44.266" transform="translate(312.31 57.458)"/><path class="a" d="M400.665,98.192h1.593c2.944,0,3.986-1.226,3.986-3.679V59.934h7.6V95.371c0,5.64-2.268,9.443-10.667,9.443h-2.515Z" transform="translate(-75.847 -2.476)"/><path class="b" d="M8.75,7.519c.535-.37.545-.955.392-2-.173-1.178-.534-3.168-.682-4.211C8.329.393,9.792.023,11.5,0c1.71.023,3.173.393,3.042,1.312-.148,1.044-.509,3.033-.682,4.211-.153,1.04-.143,1.626.392,2,.588.279,1.1-.006,1.924-.658.934-.739,2.476-2.046,3.306-2.7.731-.573,1.783.509,2.658,1.978.835,1.492,1.246,2.944.385,3.291-.978.394-2.881,1.076-3.988,1.515-.977.388-1.479.689-1.532,1.337.052.648.555.949,1.532,1.337,1.107.439,3.01,1.122,3.988,1.515.861.347.45,1.8-.385,3.291-.875,1.469-1.927,2.551-2.658,1.978-.83-.65-2.372-1.957-3.306-2.7-.824-.652-1.336-.937-1.924-.658-.535.37-.545.955-.392,2,.173,1.178.534,3.168.682,4.211.13.919-1.333,1.289-3.042,1.312-1.71-.023-3.173-.393-3.042-1.312.148-1.044.509-3.033.682-4.211.153-1.04.143-1.626-.392-2-.588-.279-1.1.006-1.924.658-.934.739-2.477,2.046-3.306,2.7-.731.573-1.783-.509-2.658-1.978C.027,16.937-.383,15.485.478,15.138c.978-.394,2.881-1.076,3.988-1.515.977-.388,1.479-.689,1.532-1.337-.052-.648-.555-.949-1.532-1.337C3.359,10.51,1.456,9.827.478,9.434c-.861-.347-.45-1.8.385-3.291C1.737,4.674,2.789,3.592,3.52,4.164c.83.65,2.372,1.957,3.306,2.7C7.65,7.513,8.162,7.8,8.75,7.519Z" transform="translate(168 34)"/></g></svg>